<svg class="img-fluid" id="outputsvg" xmlns="http://www.w3.org/2000/svg" style="transform: none; transform-origin: 50% 50%; cursor: move;" width="1000" height="1000" viewBox="0 0 10000 10000"><g id="l5j4pzTHKTnz47eONOwDKSg" fill="rgb(255,255,255)" style="transform: none;"><g><path id="p1BTALuZlD" d="M0 5000 l0 -5000 5000 0 5000 0 0 5000 0 5000 -5000 0 -5000 0 0 -5000z m5074 1439 c55 -15 93 -46 116 -94 36 -74 21 -146 -43 -202 -41 -36 -106 -53 -202 -53 l-65 0 0 180 0 180 78 0 c42 0 95 -5 116 -11z m918 -84 c5 -166 -2 -275 -18 -275 -12 0 -14 31 -14 185 0 154 2 185 14 185 11 0 15 -21 18 -95z m208 15 c0 -96 -18 -146 -54 -156 -14 -3 -31 -4 -38 -1 -7 3 -1 6 14 6 39 1 48 26 48 135 0 79 3 96 15 96 12 0 15 -16 15 -80z m115 53 c8 -32 7 -331 -1 -345 -17 -28 -24 23 -24 188 0 172 8 222 25 157z m893 -138 l-13 -40 -5 80 c-4 61 -1 85 10 101 14 21 15 18 18 -40 2 -33 -3 -79 -10 -101z m170 55 c-2 -70 -7 -114 -15 -122 -10 -10 -13 12 -13 110 0 105 2 122 16 122 14 0 15 -15 12 -110z m372 106 c0 -2 -13 -6 -29 -8 -17 -2 -28 -1 -25 4 5 8 54 12 54 4z m140 -181 c0 -156 -2 -185 -15 -185 -11 0 -15 19 -17 88 -5 145 8 282 28 282 2 0 4 -83 4 -185z m260 115 l0 -70 63 -1 c34 -1 76 -5 92 -9 20 -6 1 -8 -60 -7 l-90 2 -3 -92 -3 -93 88 -1 c74 -1 82 -3 48 -10 -22 -4 -70 -8 -107 -8 l-68 -1 0 180 c0 173 1 180 20 180 18 0 20 -7 20 -70z m570 -20 c-3 -51 -10 -94 -17 -102 -21 -20 -18 141 3 170 8 12 16 22 17 22 1 0 0 -40 -3 -90z m162 -2 c3 -92 -6 -148 -23 -148 -5 0 -9 54 -9 120 0 99 3 120 15 120 11 0 15 -19 17 -92z m208 12 c0 -96 -18 -146 -54 -156 -14 -3 -31 -4 -38 -1 -7 3 -2 6 13 6 43 2 49 17 49 128 0 85 3 103 15 103 12 0 15 -16 15 -80z m460 -105 c0 -158 -2 -185 -15 -185 -13 0 -15 27 -15 185 0 158 2 185 15 185 13 0 15 -27 15 -185z m-4032 3 c-12 -21 -13 -15 -16 54 -2 50 2 86 10 100 12 21 13 15 16 -54 2 -50 -2 -86 -10 -100z m1035 85 c7 -38 -10 -87 -40 -114 l-27 -24 22 29 c30 40 31 131 1 172 -16 23 -14 22 9 -4 17 -19 32 -45 35 -59z m449 56 c-3 -20 -8 -27 -14 -21 -6 6 -6 17 1 31 16 28 18 26 13 -10z m-1682 -6 c0 -20 -3 -24 -11 -16 -7 7 -9 19 -6 27 10 24 17 19 17 -11z m3190 0 c0 -20 -3 -24 -11 -16 -7 7 -9 19 -6 27 10 24 17 19 17 -11z m-2638 -25 c-9 -9 -12 -7 -12 12 0 19 3 21 12 12 9 -9 9 -15 0 -24z m793 -47 c0 -71 -11 -82 -21 -20 -5 28 8 89 18 89 2 0 3 -31 3 -69z m235 -1 c0 -20 -6 -44 -12 -53 -11 -15 -13 -6 -13 53 0 59 2 68 13 53 6 -9 12 -33 12 -53z m752 16 c-3 -37 1 -64 11 -85 20 -41 12 -40 -13 2 -22 35 -26 87 -10 118 6 10 12 19 14 19 1 0 1 -24 -2 -54z m1547 -23 l-1 -68 -14 34 c-12 26 -13 40 -4 67 7 19 13 34 16 34 2 0 4 -30 3 -67z m221 -16 c0 -7 -7 -22 -15 -33 -14 -18 -14 -17 -15 14 0 22 5 32 15 32 8 0 15 -6 15 -13z m-1019 -85 c10 -26 -8 -69 -38 -92 -15 -12 -16 -12 -5 0 6 8 12 39 12 70 0 31 -6 62 -12 70 -7 8 -2 6 11 -5 13 -11 27 -30 32 -43z m-670 -10 c-13 -2 -27 0 -32 5 -6 6 3 7 23 4 28 -4 29 -6 9 -9z m-5486 -371 l50 -6 -50 -19 c-65 -25 -110 -68 -129 -124 -21 -61 -38 -437 -34 -752 l3 -245 260 -6 c370 -9 495 -36 625 -135 147 -112 240 -247 287 -414 77 -280 13 -536 -181 -718 -68 -63 -126 -95 -248 -136 -68 -23 -99 -26 -349 -36 -151 -6 -402 -10 -559 -8 l-285 3 34 20 c108 65 127 86 141 165 6 34 9 270 8 620 l-3 565 -50 3 c-74 5 -325 -16 -400 -33 -175 -41 -278 -138 -314 -296 -17 -73 -13 -264 9 -394 53 -318 -7 -534 -180 -645 -59 -38 -197 -93 -210 -85 -6 4 -10 28 -10 55 l0 49 43 12 c112 29 177 92 198 191 14 63 6 215 -17 308 -61 258 -74 393 -50 503 33 146 100 242 231 327 113 74 160 82 483 87 l282 5 -1 297 c0 163 -4 382 -8 487 -7 180 -9 193 -33 235 -30 52 -49 69 -102 97 l-39 21 89 4 c169 6 459 5 509 -2z m1230 -63 c89 -26 142 -57 195 -114 71 -78 100 -175 76 -258 -37 -127 -140 -189 -405 -242 -238 -48 -259 -61 -268 -162 -10 -110 46 -169 172 -180 122 -9 204 28 247 112 11 22 22 43 24 44 1 2 39 -4 83 -13 l80 -18 -24 -46 c-67 -133 -236 -220 -405 -208 -266 18 -442 235 -346 425 53 105 150 152 419 202 127 25 186 48 216 86 20 25 22 38 19 101 -3 63 -7 76 -32 102 -41 43 -103 61 -210 61 -99 -1 -146 -13 -205 -54 -37 -26 -91 -108 -91 -138 0 -12 -12 -12 -85 1 -51 9 -85 19 -85 26 0 29 43 106 84 152 119 132 337 181 541 121z m4130 10 c172 -37 318 -164 375 -326 27 -76 26 -77 -68 -87 -36 -4 -71 -9 -77 -11 -6 -3 -16 16 -24 46 -15 58 -73 141 -122 174 -64 43 -132 59 -238 54 -86 -3 -106 -8 -164 -36 -83 -41 -129 -98 -158 -194 -18 -59 -21 -87 -17 -191 7 -154 23 -202 98 -278 66 -67 116 -84 240 -84 73 0 93 4 141 28 62 30 123 104 135 165 4 17 8 32 11 32 2 0 41 -9 87 -21 83 -21 84 -21 76 -48 -40 -142 -196 -277 -358 -310 -172 -35 -352 19 -475 142 -73 74 -108 134 -138 242 -96 339 110 662 455 715 58 9 147 4 221 -12z m-3195 -212 l0 -195 63 -118 c193 -360 279 -524 276 -528 -4 -4 -92 -7 -150 -6 -35 1 -38 4 -64 64 -15 34 -61 131 -101 214 -40 84 -75 162 -79 173 -5 15 -15 20 -43 20 l-37 0 -118 -235 -117 -235 -91 0 c-80 0 -90 2 -85 16 4 9 83 157 176 329 l170 313 0 191 0 191 100 0 100 0 0 -194z m1230 119 l0 -75 -265 0 -265 0 0 -160 0 -160 225 0 225 0 6 -23 c3 -13 4 -41 2 -63 l-3 -39 -227 -3 -228 -2 0 -145 0 -145 258 -2 257 -3 3 -72 3 -73 -173 -2 c-95 -2 -257 -2 -360 0 l-188 3 0 519 0 520 365 0 365 0 0 -75z m338 -313 l2 -383 35 3 c35 3 36 4 253 383 l218 380 127 3 127 3 0 -521 0 -520 -95 0 -95 0 0 385 0 385 -37 -1 -38 0 -218 -385 -218 -384 -125 0 -124 0 0 520 0 521 93 -3 92 -3 3 -383z m2380 -134 l2 -518 -105 0 -105 0 0 520 0 521 103 -3 102 -3 3 -517z m369 410 l34 -108 242 0 243 0 35 108 35 107 97 3 c53 1 97 0 97 -4 0 -4 -32 -95 -71 -203 -39 -108 -120 -331 -179 -496 -59 -165 -111 -308 -115 -317 -6 -16 -23 -18 -140 -18 l-132 0 -16 43 c-49 128 -357 983 -357 990 0 4 43 6 96 5 l96 -3 35 -107z"></path><path id="p1C7TUAmcd" d="M4914 6417 c-2 -7 -3 -78 -2 -157 l3 -145 55 -3 c89 -5 136 6 170 39 29 29 30 34 30 118 0 98 -12 124 -66 147 -44 18 -183 19 -190 1z"></path><path id="ptB4KNDh5" d="M2087 4498 c-11 -190 -8 -1141 3 -1158 8 -12 46 -16 217 -18 230 -4 286 3 403 49 231 92 318 305 289 704 -14 200 -62 321 -161 410 -117 105 -249 135 -594 135 l-151 0 -6 -122z"></path><path id="pbY9P9Ce2" d="M8817 5423 c-16 -16 -2 -72 74 -300 l81 -243 33 0 33 0 81 243 c45 133 81 254 81 268 0 19 -6 28 -22 33 -31 8 -353 8 -361 -1z"></path></g></g><g id="l3qWnMogyBtzQ3PrRcy8MJs" fill="rgb(0,12,108)" style="transform: none;"><g><path id="p8txgKo8l" d="M3195 5829 c-78 -12 -118 -25 -188 -62 -101 -53 -186 -170 -190 -262 l-2 -39 90 -17 c117 -23 145 -23 145 -3 0 32 53 114 91 140 54 37 105 53 175 54 121 0 202 -50 211 -132 9 -83 -49 -122 -234 -158 -129 -24 -244 -55 -287 -77 -106 -54 -158 -136 -160 -248 -2 -165 75 -272 244 -336 68 -26 230 -37 310 -20 155 32 298 159 311 276 l4 30 -98 22 c-55 12 -105 24 -113 27 -9 3 -20 -11 -34 -42 -30 -67 -66 -100 -128 -118 -127 -37 -258 40 -237 139 16 72 47 87 266 131 202 41 295 80 354 149 91 107 82 292 -21 406 -53 59 -107 92 -195 119 -79 24 -230 35 -314 21z"></path><path id="pBJIwOPbr" d="M7354 5831 c-187 -30 -342 -138 -416 -292 -49 -101 -63 -165 -63 -294 1 -187 50 -320 162 -432 102 -103 232 -153 396 -153 111 0 175 14 264 57 119 58 211 171 242 297 7 27 11 49 9 51 -11 8 -229 56 -236 51 -5 -3 -12 -20 -16 -38 -3 -18 -22 -57 -42 -85 -65 -94 -181 -129 -309 -93 -38 10 -64 28 -105 69 -68 69 -90 125 -97 247 -10 172 49 294 172 355 114 56 245 49 344 -17 49 -33 107 -116 122 -174 11 -44 16 -50 38 -50 37 0 212 28 219 34 8 8 -24 127 -47 177 -66 136 -195 239 -352 277 -62 15 -223 23 -285 13z"></path><path id="pEQESUJNu" d="M4180 5609 l0 -191 -191 -351 c-105 -193 -191 -356 -192 -361 -2 -11 231 -16 259 -5 12 4 61 92 134 238 63 127 118 231 122 231 4 0 10 -9 13 -20 4 -11 37 -84 74 -163 38 -78 84 -176 103 -218 l35 -75 136 0 c94 0 137 3 137 11 0 6 -32 72 -71 146 -40 74 -123 230 -185 348 l-114 214 0 193 0 194 -130 0 -130 0 0 -191z"></path><path id="pL865PIbo" d="M4882 5248 l3 -553 385 0 385 0 0 105 0 105 -257 3 -258 2 0 115 0 115 228 2 227 3 3 70 c2 38 0 80 -3 92 l-5 23 -225 0 -225 0 0 130 0 130 265 0 265 0 0 105 0 105 -395 0 -395 0 2 -552z"></path><path id="pJepjNBSq" d="M5759 5796 c-2 -2 -3 -251 -1 -553 l2 -548 73 1 c39 0 109 1 154 2 l82 2 218 384 c120 212 221 385 225 385 4 1 9 -173 10 -386 l3 -388 120 0 120 0 3 553 2 553 -157 -3 -157 -3 -221 -384 -220 -385 -5 385 -5 384 -121 3 c-66 1 -122 1 -125 -2z"></path><path id="pTaf8QJ37" d="M8122 5249 l3 -551 82 -2 c46 -2 105 -1 133 2 l50 5 -2 546 -3 546 -133 3 -132 3 2 -552z"></path><path id="pdKpn0xdr" d="M8450 5790 c0 -11 378 -1057 390 -1079 6 -12 39 -15 165 -15 141 -1 158 1 167 17 5 10 49 129 98 265 48 136 134 372 189 526 56 153 101 282 101 287 0 6 -58 8 -137 7 l-137 -3 -35 -107 -35 -108 -213 0 -212 0 -34 108 -35 107 -136 3 c-86 2 -136 -1 -136 -8z m696 -396 c21 -6 20 -12 -57 -241 -43 -130 -80 -238 -83 -240 -2 -2 -40 104 -84 236 -44 132 -77 242 -74 245 7 8 271 7 298 0z"></path></g></g><g id="l4JnxnOi7HqZpQdT6GCHKRJ" fill="rgb(112,148,255)" style="transform: none;"><g><path id="p1FE1CCxnJ" d="M1688 5873 c-75 -3 -108 -7 -111 -17 -8 -20 3 -31 63 -60 68 -34 85 -49 118 -106 25 -42 27 -54 32 -215 3 -93 7 -299 8 -456 l3 -287 -283 -5 c-323 -5 -370 -13 -483 -87 -254 -165 -298 -381 -181 -890 59 -259 5 -390 -182 -440 l-43 -11 3 -82 3 -82 34 -3 c45 -5 165 40 239 88 96 62 156 153 187 284 21 89 19 277 -5 421 -22 130 -25 264 -9 334 36 158 139 255 315 296 75 17 355 41 379 31 14 -5 16 -61 13 -573 -2 -442 -6 -575 -16 -598 -18 -42 -50 -73 -97 -97 -60 -30 -107 -78 -94 -95 14 -17 604 -18 964 -2 257 11 304 20 442 86 114 53 253 216 293 344 79 248 35 573 -103 754 -76 98 -193 203 -262 234 -121 55 -243 72 -540 80 l-260 6 -3 215 c-4 287 13 665 34 722 18 51 66 104 103 113 40 10 111 54 111 69 0 8 -8 17 -17 21 -20 9 -486 14 -655 8z m787 -1293 c165 -16 244 -45 333 -125 97 -87 148 -212 160 -395 25 -370 -62 -569 -288 -659 -114 -45 -175 -53 -373 -49 -145 2 -180 6 -187 18 -11 17 -14 909 -3 1098 l6 122 121 0 c67 0 171 -5 231 -10z"></path></g></g><g id="l3cfin2eD92CyZgqmQzZzPc" fill="rgb(84,84,84)" style="transform: none;"><g><path id="pfXzZjHSl" d="M5310 6473 c-63 -32 -64 -100 -4 -140 15 -10 57 -22 93 -28 56 -9 66 -14 69 -33 3 -16 -4 -25 -22 -32 -32 -12 -55 -5 -81 25 -16 18 -28 21 -57 18 -43 -6 -47 -19 -17 -57 44 -55 133 -73 202 -40 52 25 67 59 67 153 0 79 1 81 24 81 28 0 42 28 23 47 -7 8 -30 16 -49 20 -31 4 -41 1 -63 -21 l-27 -27 -23 21 c-32 30 -91 36 -135 13z m143 -71 c28 -25 22 -52 -12 -52 -47 0 -91 20 -91 41 0 38 64 45 103 11z"></path><path id="pLVRSp2Ot" d="M5691 6472 c-40 -20 -77 -65 -67 -81 13 -20 64 -12 90 14 29 29 86 34 106 10 22 -27 3 -42 -73 -59 -86 -19 -111 -40 -110 -92 1 -41 17 -62 60 -81 62 -25 146 -9 180 36 20 26 15 38 -19 45 -24 5 -36 1 -50 -14 -22 -24 -70 -26 -88 -4 -20 23 4 39 75 53 79 15 109 37 113 86 3 28 -2 43 -19 61 -41 44 -138 57 -198 26z"></path><path id="p5B948vBd" d="M6420 6483 c-8 -3 -27 -17 -42 -31 l-27 -25 -7 27 c-5 22 -11 26 -45 26 l-39 0 2 -217 3 -218 40 0 40 0 3 94 3 94 28 -27 c56 -54 142 -40 188 31 28 42 25 148 -5 191 -37 51 -93 73 -142 55z m59 -99 c43 -55 11 -134 -54 -134 -24 0 -39 7 -54 26 -43 55 -11 134 54 134 24 0 39 -7 54 -26z"></path><path id="p9mNDKNHI" d="M6700 6479 c-108 -43 -129 -198 -36 -273 34 -28 45 -31 106 -31 61 0 72 3 107 31 92 75 74 226 -34 270 -37 16 -107 17 -143 3z m125 -90 c28 -27 27 -92 -2 -121 -62 -62 -160 18 -121 99 25 53 80 63 123 22z"></path><path id="pRoEfUcGA" d="M6993 6476 c-33 -15 -50 -50 -44 -91 4 -33 47 -63 108 -75 99 -19 103 -20 103 -35 0 -21 -45 -48 -69 -40 -11 3 -29 17 -39 30 -16 20 -25 23 -56 18 -40 -6 -46 -24 -21 -59 34 -49 131 -68 200 -40 52 22 69 57 75 155 3 58 9 86 18 87 6 1 17 2 22 3 6 0 10 10 10 21 0 43 -99 51 -127 10 -14 -20 -14 -20 -42 1 -36 27 -97 33 -138 15z m143 -70 c7 -6 15 -22 19 -35 7 -23 6 -24 -46 -19 -74 7 -100 46 -45 68 24 10 55 4 72 -14z"></path><path id="pU1m6XuJ4" d="M7673 6474 c-49 -25 -75 -73 -75 -143 0 -71 19 -112 67 -141 43 -26 93 -23 137 10 l27 20 3 -87 c3 -95 9 -103 64 -89 l24 6 0 216 0 215 -37 -3 c-30 -2 -38 -8 -43 -27 -5 -22 -6 -22 -19 -7 -20 24 -65 46 -93 46 -13 0 -38 -8 -55 -16z m137 -84 c13 -13 20 -33 20 -60 0 -48 -27 -80 -69 -80 -47 0 -76 31 -76 80 0 32 6 47 24 61 30 25 76 24 101 -1z"></path><path id="pLtNqvBCh" d="M8513 6483 c-28 -6 -63 -49 -63 -77 0 -27 24 -62 53 -78 12 -7 51 -17 87 -23 55 -9 65 -14 68 -33 7 -48 -93 -50 -105 -2 -5 17 -11 19 -47 14 -52 -9 -53 -10 -35 -42 37 -66 136 -92 212 -56 50 24 67 60 67 142 0 84 5 101 29 95 24 -6 36 26 18 44 -7 8 -30 16 -49 20 -31 4 -41 1 -63 -21 l-27 -27 -23 21 c-23 22 -80 33 -122 23z m121 -74 c38 -30 35 -59 -6 -59 -68 0 -115 50 -66 69 34 14 43 13 72 -10z"></path><path id="p1HVDWxEZl" d="M9235 6476 c-58 -26 -95 -85 -95 -152 0 -84 56 -144 142 -152 93 -9 165 48 171 134 l2 39 -100 3 c-123 3 -130 5 -115 33 25 47 99 55 158 18 19 -12 24 -11 44 9 22 21 22 22 3 37 -56 44 -149 58 -210 31z m125 -195 c0 -22 -35 -51 -63 -51 -19 0 -67 42 -67 60 0 6 26 10 65 10 58 0 65 -2 65 -19z"></path><path id="p2ZkbHE0G" d="M4850 6270 l0 -210 95 0 c129 0 189 14 236 57 21 19 43 50 50 70 18 55 14 137 -10 186 -40 83 -99 107 -263 107 l-108 0 0 -210z m224 116 c49 -20 66 -51 66 -117 0 -51 -4 -61 -30 -88 -31 -30 -89 -47 -141 -39 -24 3 -24 5 -26 118 -1 63 0 121 3 128 5 17 86 16 128 -2z"></path><path id="pq9Pv9yTR" d="M5930 6265 c0 -184 2 -215 15 -216 8 -1 27 -1 43 -2 l27 -1 3 87 c1 48 6 87 11 87 4 0 16 -9 26 -20 24 -26 78 -35 116 -19 46 19 59 59 59 189 l0 110 -45 0 -45 0 0 -96 c0 -110 -9 -134 -48 -134 -57 0 -67 18 -70 129 l-4 101 -44 0 -44 0 0 -215z"></path><path id="pEJU3Ymh6" d="M7320 6330 l0 -150 36 0 c27 0 37 5 41 20 5 19 6 19 35 -5 46 -39 105 -28 133 24 22 44 19 59 -17 66 -27 6 -34 3 -51 -19 -23 -32 -51 -33 -71 -4 -12 17 -16 48 -16 120 l0 98 -45 0 -45 0 0 -150z"></path><path id="p1GUBvXAWx" d="M8080 6269 l0 -212 128 5 c143 5 179 18 213 71 15 24 19 44 16 82 -4 42 -10 54 -41 81 -38 33 -77 44 -163 44 l-53 0 0 70 0 70 -50 0 -50 0 0 -211z m243 -27 c9 -8 17 -28 17 -43 0 -40 -33 -59 -102 -59 l-58 0 0 58 c0 32 2 61 5 64 11 10 121 -5 138 -20z"></path><path id="pfUZIMnvS" d="M8820 6330 l0 -150 40 0 c34 0 40 3 46 26 l7 25 26 -25 c34 -32 71 -41 116 -26 53 17 65 54 65 190 l0 110 -45 0 -45 0 0 -103 c0 -111 -6 -127 -50 -127 -55 0 -65 19 -68 129 l-4 101 -44 0 -44 0 0 -150z"></path><path id="p10coc7cDF" d="M9490 6263 l0 -218 42 1 43 1 3 217 2 216 -45 0 -45 0 0 -217z"></path></g></g></svg>